# xmcd
#
# Track frame offsets:
#	150
#	19579
#	43710
#	69493
#	83829
#	103221
#
# Disc length: 1564 seconds
#
# Revision: 0
# Processed by: cddbd v1.5.1PL0 Copyright (c) Steve Scherf et al.
# Submitted via: dBpowerAMP V4.0
#
DISCID=46061a06
DTITLE=Jason Michael Carroll - untitled
DYEAR=2004
DGENRE=Country
TTITLE0=You're Over Me
TTITLE1=Maybe
TTITLE2=Goodbye To Caroline
TTITLE3=Anymore
TTITLE4=You Next To Me
TTITLE5=Good Boy With a Bad Side
EXTD=
EXTT0=
EXTT1=
EXTT2=
EXTT3=
EXTT4=
EXTT5=
PLAYORDER=
